<svg xmlns="http://www.w3.org/2000/svg" viewBox="0 0 128 128" width="50px" height="50px">
  <path fill="#FFF" d="M65.1,15.9C38.5,15.9,17,37.4,17,64s21.5,48.1,48.1,48.1s48.1-21.5,48.1-48.1S91.6,15.9,65.1,15.9z" />
  <path fill="#454B54" d="M65.1,115.1C36.9,115.1,14,92.2,14,64s22.9-51.1,51.1-51.1s51.1,22.9,51.1,51.1S93.2,115.1,65.1,115.1z M65.1,18.9C40.2,18.9,20,39.1,20,64s20.2,45.1,45.1,45.1s45.1-20.2,45.1-45.1S89.9,18.9,65.1,18.9z" />
  <path fill="#E97583" d="M83.9,82.2c-0.7,0-1.4-0.2-2-0.7l-18.8-15c-0.8-0.6-1.2-1.5-1.2-2.5V29.8c0-1.8,1.4-3.2,3.2-3.2c1.8,0,3.2,1.4,3.2,3.2v32.6l17.6,14.1c1.4,1.1,1.6,3.1,0.5,4.5C85.7,81.8,84.8,82.2,83.9,82.2z" />
  <path fill="#454B54" d="M65.1 55.4A7.5 7.5 0 1 0 65.1 70.4A7.5 7.5 0 1 0 65.1 55.4Z" />
</svg>